<?xml version="1.0" encoding="UTF-8"?>
<svg xmlns="http://www.w3.org/2000/svg" width="1024" height="1024" viewBox="0 0 1024 1024" aria-labelledby="title desc" role="img">
  <title id="title">Pink Drip - Salmon Paint Splash</title>
  <desc id="desc">A starburst salmon-pink paint splatter with many short, rounded-tipped arms, glossy center, and tiny surrounding droplets. Transparent background.</desc>
  
  <defs>
    <radialGradient id="gPink" cx="50%" cy="45%" r="55%">
      <stop offset="0%" stop-color="#FFC7BE"/>
      <stop offset="55%" stop-color="#FFA07A"/>
      <stop offset="100%" stop-color="#FF8C7A"/>
    </radialGradient>

    <!-- Gooey filter to merge circles into a splash with rounded arms -->
    <filter id="goo" color-interpolation-filters="sRGB">
      <feGaussianBlur in="SourceGraphic" stdDeviation="6" result="blur"/>
      <feColorMatrix in="blur" mode="matrix"
        values="1 0 0 0 0
                0 1 0 0 0
                0 0 1 0 0
                0 0 0 20 -10" result="goo"/>
      <feBlend in="SourceGraphic" in2="goo"/>
    </filter>

    <!-- Soft inner shadow for fresh wet look -->
    <filter id="innerSoft">
      <feGaussianBlur in="SourceAlpha" stdDeviation="3" result="shadow"/>
      <feOffset dx="0" dy="2"/>
      <feComposite in2="SourceAlpha" operator="arithmetic" k2="-1" k3="1"/>
      <feColorMatrix type="matrix"
        values="0 0 0 0 0
                0 0 0 0 0
                0 0 0 0 0
                0 0 0 0.15 0"/>
      <feBlend in="SourceGraphic" mode="normal"/>
    </filter>
  </defs>

  <g filter="url(#goo)"><circle cx="512" cy="512" r="165" fill="url(#gPink)" filter="url(#innerSoft)"/><circle cx="655.14" cy="512.39" r="13.41" fill="url(#gPink)"/><circle cx="688.18" cy="517.82" r="10.18" fill="url(#gPink)"/><circle cx="721.32" cy="517.19" r="4.00" fill="url(#gPink)"/><circle cx="664.48" cy="514.55" r="13.62" fill="url(#gPink)"/><circle cx="651.97" cy="534.08" r="16.85" fill="url(#gPink)"/><circle cx="683.71" cy="536.27" r="13.69" fill="url(#gPink)"/><circle cx="714.15" cy="546.85" r="8.03" fill="url(#gPink)"/><circle cx="745.28" cy="552.98" r="7.46" fill="url(#gPink)"/><circle cx="777.89" cy="549.54" r="4.00" fill="url(#gPink)"/><circle cx="719.76" cy="543.98" r="20.07" fill="url(#gPink)"/><circle cx="641.34" cy="559.69" r="17.23" fill="url(#gPink)"/><circle cx="666.93" cy="570.84" r="12.14" fill="url(#gPink)"/><circle cx="691.46" cy="584.86" r="7.51" fill="url(#gPink)"/><circle cx="719.64" cy="588.90" r="5.32" fill="url(#gPink)"/><circle cx="661.62" cy="566.61" r="13.68" fill="url(#gPink)"/><circle cx="641.21" cy="601.07" r="16.09" fill="url(#gPink)"/><circle cx="677.25" cy="631.53" r="11.42" fill="url(#gPink)"/><circle cx="715.46" cy="658.81" r="4.52" fill="url(#gPink)"/><circle cx="683.71" cy="628.92" r="19.30" fill="url(#gPink)"/><circle cx="608.18" cy="605.85" r="18.41" fill="url(#gPink)"/><circle cx="624.14" cy="624.37" r="13.77" fill="url(#gPink)"/><circle cx="645.04" cy="637.91" r="10.92" fill="url(#gPink)"/><circle cx="663.50" cy="653.91" r="6.18" fill="url(#gPink)"/><circle cx="669.76" cy="682.26" r="4.00" fill="url(#gPink)"/><circle cx="630.28" cy="628.85" r="16.16" fill="url(#gPink)"/><circle cx="606.20" cy="645.73" r="16.22" fill="url(#gPink)"/><circle cx="639.94" cy="687.45" r="8.26" fill="url(#gPink)"/><circle cx="664.06" cy="736.10" r="5.27" fill="url(#gPink)"/><circle cx="649.01" cy="702.05" r="21.33" fill="url(#gPink)"/><circle cx="578.81" cy="635.02" r="15.73" fill="url(#gPink)"/><circle cx="594.67" cy="660.53" r="13.58" fill="url(#gPink)"/><circle cx="609.74" cy="686.47" r="10.34" fill="url(#gPink)"/><circle cx="615.80" cy="717.29" r="6.26" fill="url(#gPink)"/><circle cx="640.99" cy="737.75" r="5.32" fill="url(#gPink)"/><circle cx="607.23" cy="687.78" r="21.42" fill="url(#gPink)"/><circle cx="555.60" cy="637.07" r="17.39" fill="url(#gPink)"/><circle cx="560.95" cy="658.97" r="12.87" fill="url(#gPink)"/><circle cx="567.76" cy="680.37" r="9.87" fill="url(#gPink)"/><circle cx="579.90" cy="699.96" r="6.88" fill="url(#gPink)"/><circle cx="574.46" cy="725.50" r="4.05" fill="url(#gPink)"/><circle cx="561.59" cy="658.55" r="12.16" fill="url(#gPink)"/><circle cx="520.67" cy="662.78" r="15.74" fill="url(#gPink)"/><circle cx="521.31" cy="703.81" r="13.82" fill="url(#gPink)"/><circle cx="517.29" cy="745.06" r="7.05" fill="url(#gPink)"/><circle cx="524.65" cy="785.78" r="4.00" fill="url(#gPink)"/><circle cx="522.40" cy="736.85" r="22.21" fill="url(#gPink)"/><circle cx="494.42" cy="647.51" r="16.16" fill="url(#gPink)"/><circle cx="492.29" cy="674.11" r="15.15" fill="url(#gPink)"/><circle cx="481.09" cy="699.46" r="11.67" fill="url(#gPink)"/><circle cx="480.85" cy="726.32" r="6.62" fill="url(#gPink)"/><circle cx="486.87" cy="754.04" r="4.00" fill="url(#gPink)"/><circle cx="487.46" cy="690.16" r="21.08" fill="url(#gPink)"/><circle cx="468.58" cy="640.53" r="15.01" fill="url(#gPink)"/><circle cx="462.28" cy="665.46" r="11.61" fill="url(#gPink)"/><circle cx="451.29" cy="688.87" r="11.06" fill="url(#gPink)"/><circle cx="452.12" cy="716.11" r="6.57" fill="url(#gPink)"/><circle cx="437.41" cy="738.31" r="4.00" fill="url(#gPink)"/><circle cx="458.27" cy="677.44" r="16.11" fill="url(#gPink)"/><circle cx="452.25" cy="633.28" r="17.52" fill="url(#gPink)"/><circle cx="442.53" cy="656.57" r="14.02" fill="url(#gPink)"/><circle cx="432.17" cy="679.55" r="11.60" fill="url(#gPink)"/><circle cx="420.50" cy="701.89" r="5.66" fill="url(#gPink)"/><circle cx="416.98" cy="728.20" r="4.00" fill="url(#gPink)"/><circle cx="437.12" cy="665.93" r="18.06" fill="url(#gPink)"/><circle cx="426.01" cy="625.86" r="16.62" fill="url(#gPink)"/><circle cx="401.44" cy="648.19" r="8.28" fill="url(#gPink)"/><circle cx="388.74" cy="679.67" r="5.68" fill="url(#gPink)"/><circle cx="419.90" cy="631.31" r="18.19" fill="url(#gPink)"/><circle cx="403.17" cy="621.96" r="15.89" fill="url(#gPink)"/><circle cx="371.31" cy="653.33" r="10.38" fill="url(#gPink)"/><circle cx="337.38" cy="682.62" r="7.42" fill="url(#gPink)"/><circle cx="308.59" cy="717.08" r="5.46" fill="url(#gPink)"/><circle cx="339.43" cy="683.86" r="16.18" fill="url(#gPink)"/><circle cx="389.83" cy="585.23" r="18.11" fill="url(#gPink)"/><circle cx="362.63" cy="602.96" r="12.09" fill="url(#gPink)"/><circle cx="334.08" cy="618.40" r="9.69" fill="url(#gPink)"/><circle cx="307.73" cy="637.56" r="5.67" fill="url(#gPink)"/><circle cx="273.46" cy="643.38" r="4.00" fill="url(#gPink)"/><circle cx="327.48" cy="621.60" r="14.06" fill="url(#gPink)"/><circle cx="376.70" cy="560.68" r="16.71" fill="url(#gPink)"/><circle cx="344.59" cy="571.24" r="8.67" fill="url(#gPink)"/><circle cx="314.61" cy="587.39" r="4.00" fill="url(#gPink)"/><circle cx="367.08" cy="567.14" r="22.00" fill="url(#gPink)"/><circle cx="372.02" cy="544.01" r="17.14" fill="url(#gPink)"/><circle cx="340.30" cy="555.68" r="12.79" fill="url(#gPink)"/><circle cx="306.40" cy="558.37" r="9.13" fill="url(#gPink)"/><circle cx="273.79" cy="566.39" r="4.00" fill="url(#gPink)"/><circle cx="329.39" cy="556.26" r="20.71" fill="url(#gPink)"/><circle cx="368.07" cy="515.50" r="13.23" fill="url(#gPink)"/><circle cx="334.14" cy="517.02" r="10.01" fill="url(#gPink)"/><circle cx="300.01" cy="512.60" r="4.00" fill="url(#gPink)"/><circle cx="356.24" cy="517.28" r="22.07" fill="url(#gPink)"/><circle cx="378.62" cy="492.66" r="16.28" fill="url(#gPink)"/><circle cx="354.36" cy="487.28" r="13.61" fill="url(#gPink)"/><circle cx="329.50" cy="486.37" r="8.16" fill="url(#gPink)"/><circle cx="303.91" cy="490.77" r="7.30" fill="url(#gPink)"/><circle cx="280.47" cy="479.31" r="4.00" fill="url(#gPink)"/><circle cx="344.94" cy="489.41" r="17.33" fill="url(#gPink)"/><circle cx="373.30" cy="453.96" r="14.20" fill="url(#gPink)"/><circle cx="334.77" cy="441.53" r="11.01" fill="url(#gPink)"/><circle cx="295.25" cy="431.54" r="4.83" fill="url(#gPink)"/><circle cx="344.20" cy="443.03" r="16.85" fill="url(#gPink)"/><circle cx="398.71" cy="434.12" r="15.40" fill="url(#gPink)"/><circle cx="374.87" cy="420.28" r="10.98" fill="url(#gPink)"/><circle cx="352.93" cy="403.73" r="7.75" fill="url(#gPink)"/><circle cx="332.79" cy="384.63" r="4.00" fill="url(#gPink)"/><circle cx="383.40" cy="421.37" r="16.19" fill="url(#gPink)"/><circle cx="411.24" cy="414.11" r="17.32" fill="url(#gPink)"/><circle cx="392.34" cy="389.85" r="11.87" fill="url(#gPink)"/><circle cx="365.01" cy="374.17" r="8.43" fill="url(#gPink)"/><circle cx="347.09" cy="348.92" r="5.76" fill="url(#gPink)"/><circle cx="326.26" cy="326.62" r="4.20" fill="url(#gPink)"/><circle cx="367.20" cy="369.88" r="17.76" fill="url(#gPink)"/><circle cx="422.24" cy="392.92" r="14.69" fill="url(#gPink)"/><circle cx="398.86" cy="361.58" r="8.01" fill="url(#gPink)"/><circle cx="382.05" cy="325.45" r="5.55" fill="url(#gPink)"/><circle cx="407.98" cy="369.54" r="16.30" fill="url(#gPink)"/><circle cx="444.45" cy="371.04" r="16.78" fill="url(#gPink)"/><circle cx="429.06" cy="327.16" r="8.60" fill="url(#gPink)"/><circle cx="399.70" cy="289.73" r="4.48" fill="url(#gPink)"/><circle cx="425.90" cy="325.77" r="16.90" fill="url(#gPink)"/><circle cx="473.69" cy="373.64" r="13.84" fill="url(#gPink)"/><circle cx="459.23" cy="342.93" r="8.41" fill="url(#gPink)"/><circle cx="457.67" cy="308.42" r="6.54" fill="url(#gPink)"/><circle cx="468.56" cy="364.06" r="15.67" fill="url(#gPink)"/><circle cx="503.25" cy="365.87" r="16.24" fill="url(#gPink)"/><circle cx="502.32" cy="329.47" r="8.10" fill="url(#gPink)"/><circle cx="499.35" cy="293.23" r="4.33" fill="url(#gPink)"/><circle cx="499.12" cy="347.05" r="24.13" fill="url(#gPink)"/><circle cx="530.19" cy="359.80" r="16.81" fill="url(#gPink)"/><circle cx="536.13" cy="316.92" r="10.15" fill="url(#gPink)"/><circle cx="542.35" cy="274.08" r="6.80" fill="url(#gPink)"/><circle cx="556.64" cy="232.29" r="4.00" fill="url(#gPink)"/><circle cx="542.33" cy="277.55" r="22.22" fill="url(#gPink)"/><circle cx="555.71" cy="378.51" r="17.46" fill="url(#gPink)"/><circle cx="570.19" cy="351.23" r="11.12" fill="url(#gPink)"/><circle cx="577.64" cy="321.61" r="7.60" fill="url(#gPink)"/><circle cx="594.46" cy="295.11" r="4.14" fill="url(#gPink)"/><circle cx="566.48" cy="348.55" r="21.11" fill="url(#gPink)"/><circle cx="572.94" cy="369.02" r="16.39" fill="url(#gPink)"/><circle cx="591.80" cy="327.72" r="13.15" fill="url(#gPink)"/><circle cx="610.62" cy="286.38" r="9.94" fill="url(#gPink)"/><circle cx="622.77" cy="242.11" r="5.60" fill="url(#gPink)"/><circle cx="611.79" cy="286.01" r="13.06" fill="url(#gPink)"/><circle cx="590.10" cy="397.09" r="18.43" fill="url(#gPink)"/><circle cx="607.20" cy="373.72" r="12.12" fill="url(#gPink)"/><circle cx="621.16" cy="348.24" r="11.80" fill="url(#gPink)"/><circle cx="643.71" cy="328.54" r="7.16" fill="url(#gPink)"/><circle cx="656.98" cy="302.59" r="4.00" fill="url(#gPink)"/><circle cx="620.06" cy="351.35" r="19.35" fill="url(#gPink)"/><circle cx="617.11" cy="415.36" r="15.18" fill="url(#gPink)"/><circle cx="641.43" cy="393.39" r="15.09" fill="url(#gPink)"/><circle cx="667.51" cy="373.34" r="11.61" fill="url(#gPink)"/><circle cx="691.61" cy="351.11" r="5.87" fill="url(#gPink)"/><circle cx="715.25" cy="328.39" r="4.00" fill="url(#gPink)"/><circle cx="672.26" cy="366.15" r="14.83" fill="url(#gPink)"/><circle cx="636.70" cy="433.03" r="16.70" fill="url(#gPink)"/><circle cx="668.69" cy="413.27" r="13.17" fill="url(#gPink)"/><circle cx="704.02" cy="398.80" r="8.94" fill="url(#gPink)"/><circle cx="733.93" cy="375.75" r="4.00" fill="url(#gPink)"/><circle cx="687.92" cy="401.02" r="19.77" fill="url(#gPink)"/><circle cx="648.12" cy="462.52" r="13.90" fill="url(#gPink)"/><circle cx="679.20" cy="446.13" r="8.10" fill="url(#gPink)"/><circle cx="711.45" cy="432.92" r="4.90" fill="url(#gPink)"/><circle cx="661.39" cy="456.57" r="23.94" fill="url(#gPink)"/><circle cx="660.91" cy="477.43" r="14.54" fill="url(#gPink)"/><circle cx="702.01" cy="465.06" r="8.59" fill="url(#gPink)"/><circle cx="744.79" cy="459.60" r="6.57" fill="url(#gPink)"/><circle cx="698.13" cy="467.23" r="20.40" fill="url(#gPink)"/></g>
  <ellipse cx="457" cy="447" rx="70" ry="42" fill="white" opacity="0.12"/>
  <g>
    <circle cx="809.53" cy="251.24" r="5.09" fill="#FFA07A" opacity="0.9"/><circle cx="640.90" cy="147.58" r="6.32" fill="#FFA07A" opacity="0.9"/><circle cx="127.52" cy="366.98" r="4.61" fill="#FFA07A" opacity="0.9"/><circle cx="753.62" cy="780.37" r="6.66" fill="#FFA07A" opacity="0.9"/><circle cx="190.47" cy="387.20" r="7.78" fill="#FFA07A" opacity="0.9"/><circle cx="138.08" cy="653.09" r="8.46" fill="#FFA07A" opacity="0.9"/><circle cx="144.89" cy="694.02" r="6.23" fill="#FFA07A" opacity="0.9"/><circle cx="730.69" cy="852.60" r="6.25" fill="#FFA07A" opacity="0.9"/><circle cx="516.49" cy="109.64" r="5.39" fill="#FFA07A" opacity="0.9"/><circle cx="574.86" cy="154.17" r="5.20" fill="#FFA07A" opacity="0.9"/><circle cx="150.91" cy="655.30" r="5.17" fill="#FFA07A" opacity="0.9"/><circle cx="302.32" cy="862.27" r="4.40" fill="#FFA07A" opacity="0.9"/><circle cx="717.49" cy="797.96" r="4.76" fill="#FFA07A" opacity="0.9"/><circle cx="591.86" cy="858.55" r="5.65" fill="#FFA07A" opacity="0.9"/><circle cx="202.39" cy="579.32" r="8.16" fill="#FFA07A" opacity="0.9"/><circle cx="208.72" cy="764.58" r="8.73" fill="#FFA07A" opacity="0.9"/>
  </g>
</svg>
